<?xml version="1.0" encoding="UTF-8" standalone="no"?>
<!DOCTYPE svg PUBLIC "-//W3C//DTD SVG 1.1//EN"
 "http://www.w3.org/Graphics/SVG/1.1/DTD/svg11.dtd">
<!-- Generated by graphviz version 2.47.0 (20210316.0004)
 -->
<!-- Title: dbml Pages: 1 -->
<svg width="1786pt" height="1765pt"
 viewBox="0.00 0.00 1785.54 1765.00" xmlns="http://www.w3.org/2000/svg" xmlns:xlink="http://www.w3.org/1999/xlink">
<g id="graph0" class="graph" transform="scale(1 1) rotate(0) translate(4 1761)">
<title>dbml</title>
<!-- Client -->
<g id="Client" class="node">
<title>Client</title>
<ellipse fill="none" stroke="black" stroke-width="0" cx="1472.07" cy="-345.47" rx="305.44" ry="299.63"/>
<polygon fill="#1d71b8" stroke="transparent" points="1258.07,-495.47 1258.07,-555.47 1686.07,-555.47 1686.07,-495.47 1258.07,-495.47"/>
<polygon fill="none" stroke="#29235c" points="1258.07,-495.47 1258.07,-555.47 1686.07,-555.47 1686.07,-495.47 1258.07,-495.47"/>
<text text-anchor="start" x="1368.94" y="-516.67" font-family="Helvetica,sans-Serif" font-weight="bold" font-size="32.00" fill="#ffffff"> &#160;&#160;&#160;&#160;&#160;&#160;Client &#160;&#160;&#160;&#160;&#160;&#160;</text>
<polygon fill="#e7e2dd" stroke="transparent" points="1258.07,-435.47 1258.07,-495.47 1686.07,-495.47 1686.07,-435.47 1258.07,-435.47"/>
<polygon fill="none" stroke="#29235c" points="1258.07,-435.47 1258.07,-495.47 1686.07,-495.47 1686.07,-435.47 1258.07,-435.47"/>
<text text-anchor="start" x="1269.07" y="-456.67" font-family="Helvetica,sans-Serif" font-weight="bold" font-size="32.00" fill="#29235c">id</text>
<text text-anchor="start" x="1293.96" y="-456.67" font-family="Helvetica,sans-Serif" font-size="32.00" fill="#29235c"> &#160;&#160;&#160;</text>
<text text-anchor="start" x="1532.85" y="-456.67" font-family="Helvetica,sans-Serif" font-style="italic" font-size="32.00" fill="#29235c">INTEGER</text>
<polygon fill="#e7e2dd" stroke="transparent" points="1258.07,-375.47 1258.07,-435.47 1686.07,-435.47 1686.07,-375.47 1258.07,-375.47"/>
<polygon fill="none" stroke="#29235c" points="1258.07,-375.47 1258.07,-435.47 1686.07,-435.47 1686.07,-375.47 1258.07,-375.47"/>
<text text-anchor="start" x="1269.07" y="-395.67" font-family="Helvetica,sans-Serif" font-size="32.00" fill="#29235c">first_name &#160;&#160;&#160;</text>
<text text-anchor="start" x="1518.65" y="-396.67" font-family="Helvetica,sans-Serif" font-style="italic" font-size="32.00" fill="#29235c">VARCHAR</text>
<polygon fill="#e7e2dd" stroke="transparent" points="1258.07,-315.47 1258.07,-375.47 1686.07,-375.47 1686.07,-315.47 1258.07,-315.47"/>
<polygon fill="none" stroke="#29235c" points="1258.07,-315.47 1258.07,-375.47 1686.07,-375.47 1686.07,-315.47 1258.07,-315.47"/>
<text text-anchor="start" x="1269.07" y="-335.67" font-family="Helvetica,sans-Serif" font-size="32.00" fill="#29235c">last_name &#160;&#160;&#160;</text>
<text text-anchor="start" x="1518.65" y="-336.67" font-family="Helvetica,sans-Serif" font-style="italic" font-size="32.00" fill="#29235c">VARCHAR</text>
<polygon fill="#e7e2dd" stroke="transparent" points="1258.07,-255.47 1258.07,-315.47 1686.07,-315.47 1686.07,-255.47 1258.07,-255.47"/>
<polygon fill="none" stroke="#29235c" points="1258.07,-255.47 1258.07,-315.47 1686.07,-315.47 1686.07,-255.47 1258.07,-255.47"/>
<text text-anchor="start" x="1268.69" y="-275.67" font-family="Helvetica,sans-Serif" font-size="32.00" fill="#29235c">phone_number &#160;&#160;&#160;</text>
<text text-anchor="start" x="1518.86" y="-276.67" font-family="Helvetica,sans-Serif" font-style="italic" font-size="32.00" fill="#29235c">VARCHAR</text>
<polygon fill="#e7e2dd" stroke="transparent" points="1258.07,-195.47 1258.07,-255.47 1686.07,-255.47 1686.07,-195.47 1258.07,-195.47"/>
<polygon fill="none" stroke="#29235c" points="1258.07,-195.47 1258.07,-255.47 1686.07,-255.47 1686.07,-195.47 1258.07,-195.47"/>
<text text-anchor="start" x="1269.07" y="-215.67" font-family="Helvetica,sans-Serif" font-size="32.00" fill="#29235c">email &#160;&#160;&#160;</text>
<text text-anchor="start" x="1518.65" y="-216.67" font-family="Helvetica,sans-Serif" font-style="italic" font-size="32.00" fill="#29235c">VARCHAR</text>
<polygon fill="#e7e2dd" stroke="transparent" points="1258.07,-135.47 1258.07,-195.47 1686.07,-195.47 1686.07,-135.47 1258.07,-135.47"/>
<polygon fill="none" stroke="#29235c" points="1258.07,-135.47 1258.07,-195.47 1686.07,-195.47 1686.07,-135.47 1258.07,-135.47"/>
<text text-anchor="start" x="1269.07" y="-155.67" font-family="Helvetica,sans-Serif" font-size="32.00" fill="#29235c">address &#160;&#160;&#160;</text>
<text text-anchor="start" x="1518.65" y="-156.67" font-family="Helvetica,sans-Serif" font-style="italic" font-size="32.00" fill="#29235c">VARCHAR</text>
<polygon fill="none" stroke="#29235c" stroke-width="2" points="1257.07,-134.47 1257.07,-556.47 1687.07,-556.47 1687.07,-134.47 1257.07,-134.47"/>
</g>
<!-- Dog -->
<g id="Dog" class="node">
<title>Dog</title>
<ellipse fill="none" stroke="black" stroke-width="0" cx="841.39" cy="-810.47" rx="226.05" ry="257.27"/>
<polygon fill="#1d71b8" stroke="transparent" points="683.39,-930.47 683.39,-990.47 999.39,-990.47 999.39,-930.47 683.39,-930.47"/>
<polygon fill="none" stroke="#29235c" points="683.39,-930.47 683.39,-990.47 999.39,-990.47 999.39,-930.47 683.39,-930.47"/>
<text text-anchor="start" x="749.81" y="-951.67" font-family="Helvetica,sans-Serif" font-weight="bold" font-size="32.00" fill="#ffffff"> &#160;&#160;&#160;&#160;&#160;&#160;Dog &#160;&#160;&#160;&#160;&#160;&#160;</text>
<polygon fill="#e7e2dd" stroke="transparent" points="683.39,-870.47 683.39,-930.47 999.39,-930.47 999.39,-870.47 683.39,-870.47"/>
<polygon fill="none" stroke="#29235c" points="683.39,-870.47 683.39,-930.47 999.39,-930.47 999.39,-870.47 683.39,-870.47"/>
<text text-anchor="start" x="694.39" y="-891.67" font-family="Helvetica,sans-Serif" font-weight="bold" font-size="32.00" fill="#29235c">id</text>
<text text-anchor="start" x="719.28" y="-891.67" font-family="Helvetica,sans-Serif" font-size="32.00" fill="#29235c"> &#160;&#160;&#160;</text>
<text text-anchor="start" x="846.18" y="-891.67" font-family="Helvetica,sans-Serif" font-style="italic" font-size="32.00" fill="#29235c">INTEGER</text>
<polygon fill="#e7e2dd" stroke="transparent" points="683.39,-810.47 683.39,-870.47 999.39,-870.47 999.39,-810.47 683.39,-810.47"/>
<polygon fill="none" stroke="#29235c" points="683.39,-810.47 683.39,-870.47 999.39,-870.47 999.39,-810.47 683.39,-810.47"/>
<text text-anchor="start" x="694.39" y="-830.67" font-family="Helvetica,sans-Serif" font-size="32.00" fill="#29235c">name &#160;&#160;&#160;</text>
<text text-anchor="start" x="831.97" y="-831.67" font-family="Helvetica,sans-Serif" font-style="italic" font-size="32.00" fill="#29235c">VARCHAR</text>
<polygon fill="#e7e2dd" stroke="transparent" points="683.39,-750.47 683.39,-810.47 999.39,-810.47 999.39,-750.47 683.39,-750.47"/>
<polygon fill="none" stroke="#29235c" points="683.39,-750.47 683.39,-810.47 999.39,-810.47 999.39,-750.47 683.39,-750.47"/>
<text text-anchor="start" x="694.39" y="-770.67" font-family="Helvetica,sans-Serif" font-size="32.00" fill="#29235c">breed &#160;&#160;&#160;</text>
<text text-anchor="start" x="831.97" y="-771.67" font-family="Helvetica,sans-Serif" font-style="italic" font-size="32.00" fill="#29235c">VARCHAR</text>
<polygon fill="#e7e2dd" stroke="transparent" points="683.39,-690.47 683.39,-750.47 999.39,-750.47 999.39,-690.47 683.39,-690.47"/>
<polygon fill="none" stroke="#29235c" points="683.39,-690.47 683.39,-750.47 999.39,-750.47 999.39,-690.47 683.39,-690.47"/>
<text text-anchor="start" x="694.39" y="-710.67" font-family="Helvetica,sans-Serif" font-size="32.00" fill="#29235c">age &#160;&#160;&#160;</text>
<text text-anchor="start" x="846.18" y="-711.67" font-family="Helvetica,sans-Serif" font-style="italic" font-size="32.00" fill="#29235c">INTEGER</text>
<polygon fill="#e7e2dd" stroke="transparent" points="683.39,-630.47 683.39,-690.47 999.39,-690.47 999.39,-630.47 683.39,-630.47"/>
<polygon fill="none" stroke="#29235c" points="683.39,-630.47 683.39,-690.47 999.39,-690.47 999.39,-630.47 683.39,-630.47"/>
<text text-anchor="start" x="693.93" y="-650.67" font-family="Helvetica,sans-Serif" font-size="32.00" fill="#29235c">client_id &#160;&#160;&#160;</text>
<text text-anchor="start" x="846.29" y="-651.67" font-family="Helvetica,sans-Serif" font-style="italic" font-size="32.00" fill="#29235c">INTEGER</text>
<polygon fill="none" stroke="#29235c" stroke-width="2" points="682.39,-629.47 682.39,-991.47 1000.39,-991.47 1000.39,-629.47 682.39,-629.47"/>
</g>
<!-- Dog&#45;&gt;Client -->
<!-- Dog&#45;&gt;Client -->
<g id="edge2" class="edge">
<title>Dog:e&#45;&gt;Client:w</title>
<path fill="none" stroke="#29235c" stroke-width="3" d="M1000.39,-660.47C1140.16,-660.47 1115.16,-474.87 1246.88,-465.81"/>
<polygon fill="#29235c" stroke="#29235c" stroke-width="3" points="1247.19,-469.3 1257.07,-465.47 1246.96,-462.31 1247.19,-469.3"/>
<text text-anchor="middle" x="1250.85" y="-475.07" font-family="Helvetica,sans-Serif" font-size="32.00" fill="#29235c">*</text>
<text text-anchor="middle" x="991.5" y="-670.07" font-family="Helvetica,sans-Serif" font-size="32.00" fill="#29235c">1</text>
</g>
<!-- DogWalker -->
<g id="DogWalker" class="node">
<title>DogWalker</title>
<ellipse fill="none" stroke="black" stroke-width="0" cx="1472.07" cy="-1313.47" rx="305.44" ry="299.63"/>
<polygon fill="#1d71b8" stroke="transparent" points="1258.07,-1463.47 1258.07,-1523.47 1686.07,-1523.47 1686.07,-1463.47 1258.07,-1463.47"/>
<polygon fill="none" stroke="#29235c" points="1258.07,-1463.47 1258.07,-1523.47 1686.07,-1523.47 1686.07,-1463.47 1258.07,-1463.47"/>
<text text-anchor="start" x="1330.71" y="-1484.67" font-family="Helvetica,sans-Serif" font-weight="bold" font-size="32.00" fill="#ffffff"> &#160;&#160;&#160;&#160;&#160;&#160;DogWalker &#160;&#160;&#160;&#160;&#160;&#160;</text>
<polygon fill="#e7e2dd" stroke="transparent" points="1258.07,-1403.47 1258.07,-1463.47 1686.07,-1463.47 1686.07,-1403.47 1258.07,-1403.47"/>
<polygon fill="none" stroke="#29235c" points="1258.07,-1403.47 1258.07,-1463.47 1686.07,-1463.47 1686.07,-1403.47 1258.07,-1403.47"/>
<text text-anchor="start" x="1269.07" y="-1424.67" font-family="Helvetica,sans-Serif" font-weight="bold" font-size="32.00" fill="#29235c">id</text>
<text text-anchor="start" x="1293.96" y="-1424.67" font-family="Helvetica,sans-Serif" font-size="32.00" fill="#29235c"> &#160;&#160;&#160;</text>
<text text-anchor="start" x="1532.85" y="-1424.67" font-family="Helvetica,sans-Serif" font-style="italic" font-size="32.00" fill="#29235c">INTEGER</text>
<polygon fill="#e7e2dd" stroke="transparent" points="1258.07,-1343.47 1258.07,-1403.47 1686.07,-1403.47 1686.07,-1343.47 1258.07,-1343.47"/>
<polygon fill="none" stroke="#29235c" points="1258.07,-1343.47 1258.07,-1403.47 1686.07,-1403.47 1686.07,-1343.47 1258.07,-1343.47"/>
<text text-anchor="start" x="1269.07" y="-1363.67" font-family="Helvetica,sans-Serif" font-size="32.00" fill="#29235c">first_name &#160;&#160;&#160;</text>
<text text-anchor="start" x="1518.65" y="-1364.67" font-family="Helvetica,sans-Serif" font-style="italic" font-size="32.00" fill="#29235c">VARCHAR</text>
<polygon fill="#e7e2dd" stroke="transparent" points="1258.07,-1283.47 1258.07,-1343.47 1686.07,-1343.47 1686.07,-1283.47 1258.07,-1283.47"/>
<polygon fill="none" stroke="#29235c" points="1258.07,-1283.47 1258.07,-1343.47 1686.07,-1343.47 1686.07,-1283.47 1258.07,-1283.47"/>
<text text-anchor="start" x="1269.07" y="-1303.67" font-family="Helvetica,sans-Serif" font-size="32.00" fill="#29235c">last_name &#160;&#160;&#160;</text>
<text text-anchor="start" x="1518.65" y="-1304.67" font-family="Helvetica,sans-Serif" font-style="italic" font-size="32.00" fill="#29235c">VARCHAR</text>
<polygon fill="#e7e2dd" stroke="transparent" points="1258.07,-1223.47 1258.07,-1283.47 1686.07,-1283.47 1686.07,-1223.47 1258.07,-1223.47"/>
<polygon fill="none" stroke="#29235c" points="1258.07,-1223.47 1258.07,-1283.47 1686.07,-1283.47 1686.07,-1223.47 1258.07,-1223.47"/>
<text text-anchor="start" x="1268.69" y="-1243.67" font-family="Helvetica,sans-Serif" font-size="32.00" fill="#29235c">phone_number &#160;&#160;&#160;</text>
<text text-anchor="start" x="1518.86" y="-1244.67" font-family="Helvetica,sans-Serif" font-style="italic" font-size="32.00" fill="#29235c">VARCHAR</text>
<polygon fill="#e7e2dd" stroke="transparent" points="1258.07,-1163.47 1258.07,-1223.47 1686.07,-1223.47 1686.07,-1163.47 1258.07,-1163.47"/>
<polygon fill="none" stroke="#29235c" points="1258.07,-1163.47 1258.07,-1223.47 1686.07,-1223.47 1686.07,-1163.47 1258.07,-1163.47"/>
<text text-anchor="start" x="1269.07" y="-1183.67" font-family="Helvetica,sans-Serif" font-size="32.00" fill="#29235c">email &#160;&#160;&#160;</text>
<text text-anchor="start" x="1518.65" y="-1184.67" font-family="Helvetica,sans-Serif" font-style="italic" font-size="32.00" fill="#29235c">VARCHAR</text>
<polygon fill="#e7e2dd" stroke="transparent" points="1258.07,-1103.47 1258.07,-1163.47 1686.07,-1163.47 1686.07,-1103.47 1258.07,-1103.47"/>
<polygon fill="none" stroke="#29235c" points="1258.07,-1103.47 1258.07,-1163.47 1686.07,-1163.47 1686.07,-1103.47 1258.07,-1103.47"/>
<text text-anchor="start" x="1269.07" y="-1123.67" font-family="Helvetica,sans-Serif" font-size="32.00" fill="#29235c">hourly_rate &#160;&#160;&#160;</text>
<text text-anchor="start" x="1571.95" y="-1124.67" font-family="Helvetica,sans-Serif" font-style="italic" font-size="32.00" fill="#29235c">FLOAT</text>
<polygon fill="none" stroke="#29235c" stroke-width="2" points="1257.07,-1102.47 1257.07,-1524.47 1687.07,-1524.47 1687.07,-1102.47 1257.07,-1102.47"/>
</g>
<!-- Feedback -->
<g id="Feedback" class="node">
<title>Feedback</title>
<ellipse fill="none" stroke="black" stroke-width="0" cx="258.09" cy="-489.47" rx="258.19" ry="257.27"/>
<polygon fill="#1d71b8" stroke="transparent" points="78.09,-609.47 78.09,-669.47 439.09,-669.47 439.09,-609.47 78.09,-609.47"/>
<polygon fill="none" stroke="#29235c" points="78.09,-609.47 78.09,-669.47 439.09,-669.47 439.09,-609.47 78.09,-609.47"/>
<text text-anchor="start" x="126.1" y="-630.67" font-family="Helvetica,sans-Serif" font-weight="bold" font-size="32.00" fill="#ffffff"> &#160;&#160;&#160;&#160;&#160;&#160;Feedback &#160;&#160;&#160;&#160;&#160;&#160;</text>
<polygon fill="#e7e2dd" stroke="transparent" points="78.09,-549.47 78.09,-609.47 439.09,-609.47 439.09,-549.47 78.09,-549.47"/>
<polygon fill="none" stroke="#29235c" points="78.09,-549.47 78.09,-609.47 439.09,-609.47 439.09,-549.47 78.09,-549.47"/>
<text text-anchor="start" x="89.09" y="-570.67" font-family="Helvetica,sans-Serif" font-weight="bold" font-size="32.00" fill="#29235c">id</text>
<text text-anchor="start" x="113.98" y="-570.67" font-family="Helvetica,sans-Serif" font-size="32.00" fill="#29235c"> &#160;&#160;&#160;</text>
<text text-anchor="start" x="285.88" y="-570.67" font-family="Helvetica,sans-Serif" font-style="italic" font-size="32.00" fill="#29235c">INTEGER</text>
<polygon fill="#e7e2dd" stroke="transparent" points="78.09,-489.47 78.09,-549.47 439.09,-549.47 439.09,-489.47 78.09,-489.47"/>
<polygon fill="none" stroke="#29235c" points="78.09,-489.47 78.09,-549.47 439.09,-549.47 439.09,-489.47 78.09,-489.47"/>
<text text-anchor="start" x="89.09" y="-509.67" font-family="Helvetica,sans-Serif" font-size="32.00" fill="#29235c">client_id &#160;&#160;&#160;</text>
<text text-anchor="start" x="285.88" y="-510.67" font-family="Helvetica,sans-Serif" font-style="italic" font-size="32.00" fill="#29235c">INTEGER</text>
<polygon fill="#e7e2dd" stroke="transparent" points="78.09,-429.47 78.09,-489.47 439.09,-489.47 439.09,-429.47 78.09,-429.47"/>
<polygon fill="none" stroke="#29235c" points="78.09,-429.47 78.09,-489.47 439.09,-489.47 439.09,-429.47 78.09,-429.47"/>
<text text-anchor="start" x="89.09" y="-449.67" font-family="Helvetica,sans-Serif" font-size="32.00" fill="#29235c">walk_id &#160;&#160;&#160;</text>
<text text-anchor="start" x="285.88" y="-450.67" font-family="Helvetica,sans-Serif" font-style="italic" font-size="32.00" fill="#29235c">INTEGER</text>
<polygon fill="#e7e2dd" stroke="transparent" points="78.09,-369.47 78.09,-429.47 439.09,-429.47 439.09,-369.47 78.09,-369.47"/>
<polygon fill="none" stroke="#29235c" points="78.09,-369.47 78.09,-429.47 439.09,-429.47 439.09,-369.47 78.09,-369.47"/>
<text text-anchor="start" x="89.09" y="-389.67" font-family="Helvetica,sans-Serif" font-size="32.00" fill="#29235c">rating &#160;&#160;&#160;</text>
<text text-anchor="start" x="285.88" y="-390.67" font-family="Helvetica,sans-Serif" font-style="italic" font-size="32.00" fill="#29235c">INTEGER</text>
<polygon fill="#e7e2dd" stroke="transparent" points="78.09,-309.47 78.09,-369.47 439.09,-369.47 439.09,-309.47 78.09,-309.47"/>
<polygon fill="none" stroke="#29235c" points="78.09,-309.47 78.09,-369.47 439.09,-369.47 439.09,-309.47 78.09,-309.47"/>
<text text-anchor="start" x="89.03" y="-329.67" font-family="Helvetica,sans-Serif" font-size="32.00" fill="#29235c">comments &#160;&#160;&#160;</text>
<text text-anchor="start" x="271.88" y="-330.67" font-family="Helvetica,sans-Serif" font-style="italic" font-size="32.00" fill="#29235c">VARCHAR</text>
<polygon fill="none" stroke="#29235c" stroke-width="2" points="76.59,-308.47 76.59,-670.47 439.59,-670.47 439.59,-308.47 76.59,-308.47"/>
</g>
<!-- Feedback&#45;&gt;Client -->
<!-- Feedback&#45;&gt;Client -->
<g id="edge4" class="edge">
<title>Feedback:e&#45;&gt;Client:w</title>
<path fill="none" stroke="#29235c" stroke-width="3" d="M440.09,-519.47C650.95,-519.47 386.41,-188.77 552.19,-58.47 653.25,20.96 1027.1,17.75 1130.6,-58.47 1280.3,-168.71 1075.52,-454.6 1246.94,-465.17"/>
<polygon fill="#29235c" stroke="#29235c" stroke-width="3" points="1246.97,-468.67 1257.07,-465.47 1247.18,-461.67 1246.97,-468.67"/>
<text text-anchor="middle" x="1263.29" y="-475.07" font-family="Helvetica,sans-Serif" font-size="32.00" fill="#29235c">*</text>
<text text-anchor="middle" x="431.2" y="-529.07" font-family="Helvetica,sans-Serif" font-size="32.00" fill="#29235c">1</text>
</g>
<!-- Walk -->
<g id="Walk" class="node">
<title>Walk</title>
<ellipse fill="none" stroke="black" stroke-width="0" cx="841.39" cy="-1343.47" rx="289.41" ry="257.27"/>
<polygon fill="#1d71b8" stroke="transparent" points="639.39,-1463.47 639.39,-1523.47 1044.39,-1523.47 1044.39,-1463.47 639.39,-1463.47"/>
<polygon fill="none" stroke="#29235c" points="639.39,-1463.47 639.39,-1523.47 1044.39,-1523.47 1044.39,-1463.47 639.39,-1463.47"/>
<text text-anchor="start" x="744.1" y="-1484.67" font-family="Helvetica,sans-Serif" font-weight="bold" font-size="32.00" fill="#ffffff"> &#160;&#160;&#160;&#160;&#160;&#160;Walk &#160;&#160;&#160;&#160;&#160;&#160;</text>
<polygon fill="#e7e2dd" stroke="transparent" points="639.39,-1403.47 639.39,-1463.47 1044.39,-1463.47 1044.39,-1403.47 639.39,-1403.47"/>
<polygon fill="none" stroke="#29235c" points="639.39,-1403.47 639.39,-1463.47 1044.39,-1463.47 1044.39,-1403.47 639.39,-1403.47"/>
<text text-anchor="start" x="650.39" y="-1424.67" font-family="Helvetica,sans-Serif" font-weight="bold" font-size="32.00" fill="#29235c">id</text>
<text text-anchor="start" x="675.28" y="-1424.67" font-family="Helvetica,sans-Serif" font-size="32.00" fill="#29235c"> &#160;&#160;&#160;</text>
<text text-anchor="start" x="891.18" y="-1424.67" font-family="Helvetica,sans-Serif" font-style="italic" font-size="32.00" fill="#29235c">INTEGER</text>
<polygon fill="#e7e2dd" stroke="transparent" points="639.39,-1343.47 639.39,-1403.47 1044.39,-1403.47 1044.39,-1343.47 639.39,-1343.47"/>
<polygon fill="none" stroke="#29235c" points="639.39,-1343.47 639.39,-1403.47 1044.39,-1403.47 1044.39,-1343.47 639.39,-1343.47"/>
<text text-anchor="start" x="650.39" y="-1363.67" font-family="Helvetica,sans-Serif" font-size="32.00" fill="#29235c">date &#160;&#160;&#160;</text>
<text text-anchor="start" x="871.63" y="-1364.67" font-family="Helvetica,sans-Serif" font-style="italic" font-size="32.00" fill="#29235c">DATETIME</text>
<polygon fill="#e7e2dd" stroke="transparent" points="639.39,-1283.47 639.39,-1343.47 1044.39,-1343.47 1044.39,-1283.47 639.39,-1283.47"/>
<polygon fill="none" stroke="#29235c" points="639.39,-1283.47 639.39,-1343.47 1044.39,-1343.47 1044.39,-1283.47 639.39,-1283.47"/>
<text text-anchor="start" x="650.39" y="-1303.67" font-family="Helvetica,sans-Serif" font-size="32.00" fill="#29235c">duration &#160;&#160;&#160;</text>
<text text-anchor="start" x="891.18" y="-1304.67" font-family="Helvetica,sans-Serif" font-style="italic" font-size="32.00" fill="#29235c">INTEGER</text>
<polygon fill="#e7e2dd" stroke="transparent" points="639.39,-1223.47 639.39,-1283.47 1044.39,-1283.47 1044.39,-1223.47 639.39,-1223.47"/>
<polygon fill="none" stroke="#29235c" points="639.39,-1223.47 639.39,-1283.47 1044.39,-1283.47 1044.39,-1223.47 639.39,-1223.47"/>
<text text-anchor="start" x="649.98" y="-1243.67" font-family="Helvetica,sans-Serif" font-size="32.00" fill="#29235c">dog_walker_id &#160;&#160;&#160;</text>
<text text-anchor="start" x="891.29" y="-1244.67" font-family="Helvetica,sans-Serif" font-style="italic" font-size="32.00" fill="#29235c">INTEGER</text>
<polygon fill="#e7e2dd" stroke="transparent" points="639.39,-1163.47 639.39,-1223.47 1044.39,-1223.47 1044.39,-1163.47 639.39,-1163.47"/>
<polygon fill="none" stroke="#29235c" points="639.39,-1163.47 639.39,-1223.47 1044.39,-1223.47 1044.39,-1163.47 639.39,-1163.47"/>
<text text-anchor="start" x="650.39" y="-1183.67" font-family="Helvetica,sans-Serif" font-size="32.00" fill="#29235c">completed &#160;&#160;&#160;</text>
<text text-anchor="start" x="878.7" y="-1184.67" font-family="Helvetica,sans-Serif" font-style="italic" font-size="32.00" fill="#29235c">BOOLEAN</text>
<polygon fill="none" stroke="#29235c" stroke-width="2" points="637.89,-1162.47 637.89,-1524.47 1044.89,-1524.47 1044.89,-1162.47 637.89,-1162.47"/>
</g>
<!-- Feedback&#45;&gt;Walk -->
<!-- Feedback&#45;&gt;Walk -->
<g id="edge6" class="edge">
<title>Feedback:e&#45;&gt;Walk:w</title>
<path fill="none" stroke="#29235c" stroke-width="3" d="M440.09,-459.47C657.53,-459.47 425,-1403.27 628.38,-1432.76"/>
<polygon fill="#29235c" stroke="#29235c" stroke-width="3" points="628.17,-1436.26 638.39,-1433.47 628.67,-1429.27 628.17,-1436.26"/>
<text text-anchor="middle" x="632.17" y="-1443.07" font-family="Helvetica,sans-Serif" font-size="32.00" fill="#29235c">*</text>
<text text-anchor="middle" x="431.2" y="-469.07" font-family="Helvetica,sans-Serif" font-size="32.00" fill="#29235c">1</text>
</g>
<!-- Walk&#45;&gt;DogWalker -->
<!-- Walk&#45;&gt;DogWalker -->
<g id="edge8" class="edge">
<title>Walk:e&#45;&gt;DogWalker:w</title>
<path fill="none" stroke="#29235c" stroke-width="3" d="M1045.39,-1253.47C1165.39,-1253.47 1135.45,-1423.42 1246.95,-1433.04"/>
<polygon fill="#29235c" stroke="#29235c" stroke-width="3" points="1246.93,-1436.55 1257.07,-1433.47 1247.23,-1429.55 1246.93,-1436.55"/>
<text text-anchor="middle" x="1250.85" y="-1443.07" font-family="Helvetica,sans-Serif" font-size="32.00" fill="#29235c">*</text>
<text text-anchor="middle" x="1036.5" y="-1263.07" font-family="Helvetica,sans-Serif" font-size="32.00" fill="#29235c">1</text>
</g>
<!-- Payment -->
<g id="Payment" class="node">
<title>Payment</title>
<ellipse fill="none" stroke="black" stroke-width="0" cx="841.39" cy="-282.47" rx="226.05" ry="214.92"/>
<polygon fill="#1d71b8" stroke="transparent" points="683.39,-372.47 683.39,-432.47 999.39,-432.47 999.39,-372.47 683.39,-372.47"/>
<polygon fill="none" stroke="#29235c" points="683.39,-372.47 683.39,-432.47 999.39,-432.47 999.39,-372.47 683.39,-372.47"/>
<text text-anchor="start" x="716.02" y="-393.67" font-family="Helvetica,sans-Serif" font-weight="bold" font-size="32.00" fill="#ffffff"> &#160;&#160;&#160;&#160;&#160;&#160;Payment &#160;&#160;&#160;&#160;&#160;&#160;</text>
<polygon fill="#e7e2dd" stroke="transparent" points="683.39,-312.47 683.39,-372.47 999.39,-372.47 999.39,-312.47 683.39,-312.47"/>
<polygon fill="none" stroke="#29235c" points="683.39,-312.47 683.39,-372.47 999.39,-372.47 999.39,-312.47 683.39,-312.47"/>
<text text-anchor="start" x="694.39" y="-333.67" font-family="Helvetica,sans-Serif" font-weight="bold" font-size="32.00" fill="#29235c">id</text>
<text text-anchor="start" x="719.28" y="-333.67" font-family="Helvetica,sans-Serif" font-size="32.00" fill="#29235c"> &#160;&#160;&#160;</text>
<text text-anchor="start" x="846.18" y="-333.67" font-family="Helvetica,sans-Serif" font-style="italic" font-size="32.00" fill="#29235c">INTEGER</text>
<polygon fill="#e7e2dd" stroke="transparent" points="683.39,-252.47 683.39,-312.47 999.39,-312.47 999.39,-252.47 683.39,-252.47"/>
<polygon fill="none" stroke="#29235c" points="683.39,-252.47 683.39,-312.47 999.39,-312.47 999.39,-252.47 683.39,-252.47"/>
<text text-anchor="start" x="693.93" y="-272.67" font-family="Helvetica,sans-Serif" font-size="32.00" fill="#29235c">client_id &#160;&#160;&#160;</text>
<text text-anchor="start" x="846.29" y="-273.67" font-family="Helvetica,sans-Serif" font-style="italic" font-size="32.00" fill="#29235c">INTEGER</text>
<polygon fill="#e7e2dd" stroke="transparent" points="683.39,-192.47 683.39,-252.47 999.39,-252.47 999.39,-192.47 683.39,-192.47"/>
<polygon fill="none" stroke="#29235c" points="683.39,-192.47 683.39,-252.47 999.39,-252.47 999.39,-192.47 683.39,-192.47"/>
<text text-anchor="start" x="694.39" y="-212.67" font-family="Helvetica,sans-Serif" font-size="32.00" fill="#29235c">amount &#160;&#160;&#160;</text>
<text text-anchor="start" x="885.27" y="-213.67" font-family="Helvetica,sans-Serif" font-style="italic" font-size="32.00" fill="#29235c">FLOAT</text>
<polygon fill="#e7e2dd" stroke="transparent" points="683.39,-132.47 683.39,-192.47 999.39,-192.47 999.39,-132.47 683.39,-132.47"/>
<polygon fill="none" stroke="#29235c" points="683.39,-132.47 683.39,-192.47 999.39,-192.47 999.39,-132.47 683.39,-132.47"/>
<text text-anchor="start" x="694.39" y="-152.67" font-family="Helvetica,sans-Serif" font-size="32.00" fill="#29235c">date &#160;&#160;&#160;</text>
<text text-anchor="start" x="826.63" y="-153.67" font-family="Helvetica,sans-Serif" font-style="italic" font-size="32.00" fill="#29235c">DATETIME</text>
<polygon fill="none" stroke="#29235c" stroke-width="2" points="682.39,-131.47 682.39,-433.47 1000.39,-433.47 1000.39,-131.47 682.39,-131.47"/>
</g>
<!-- Payment&#45;&gt;Client -->
<!-- Payment&#45;&gt;Client -->
<g id="edge10" class="edge">
<title>Payment:e&#45;&gt;Client:w</title>
<path fill="none" stroke="#29235c" stroke-width="3" d="M1000.39,-282.47C1136.94,-282.47 1118.06,-456.29 1246.71,-465.12"/>
<polygon fill="#29235c" stroke="#29235c" stroke-width="3" points="1246.96,-468.63 1257.07,-465.47 1247.19,-461.63 1246.96,-468.63"/>
<text text-anchor="middle" x="1250.85" y="-436.67" font-family="Helvetica,sans-Serif" font-size="32.00" fill="#29235c">*</text>
<text text-anchor="middle" x="991.5" y="-292.07" font-family="Helvetica,sans-Serif" font-size="32.00" fill="#29235c">1</text>
</g>
<!-- WalkLocation -->
<g id="WalkLocation" class="node">
<title>WalkLocation</title>
<ellipse fill="none" stroke="black" stroke-width="0" cx="258.09" cy="-1584.47" rx="241.66" ry="172.57"/>
<polygon fill="#1d71b8" stroke="transparent" points="89.09,-1644.47 89.09,-1704.47 427.09,-1704.47 427.09,-1644.47 89.09,-1644.47"/>
<polygon fill="none" stroke="#29235c" points="89.09,-1644.47 89.09,-1704.47 427.09,-1704.47 427.09,-1644.47 89.09,-1644.47"/>
<text text-anchor="start" x="99.83" y="-1665.67" font-family="Helvetica,sans-Serif" font-weight="bold" font-size="32.00" fill="#ffffff"> &#160;&#160;&#160;&#160;&#160;&#160;WalkLocation &#160;&#160;&#160;&#160;&#160;&#160;</text>
<polygon fill="#e7e2dd" stroke="transparent" points="89.09,-1584.47 89.09,-1644.47 427.09,-1644.47 427.09,-1584.47 89.09,-1584.47"/>
<polygon fill="none" stroke="#29235c" points="89.09,-1584.47 89.09,-1644.47 427.09,-1644.47 427.09,-1584.47 89.09,-1584.47"/>
<text text-anchor="start" x="100.09" y="-1605.67" font-family="Helvetica,sans-Serif" font-weight="bold" font-size="32.00" fill="#29235c">id</text>
<text text-anchor="start" x="124.98" y="-1605.67" font-family="Helvetica,sans-Serif" font-size="32.00" fill="#29235c"> &#160;&#160;&#160;</text>
<text text-anchor="start" x="273.88" y="-1605.67" font-family="Helvetica,sans-Serif" font-style="italic" font-size="32.00" fill="#29235c">INTEGER</text>
<polygon fill="#e7e2dd" stroke="transparent" points="89.09,-1524.47 89.09,-1584.47 427.09,-1584.47 427.09,-1524.47 89.09,-1524.47"/>
<polygon fill="none" stroke="#29235c" points="89.09,-1524.47 89.09,-1584.47 427.09,-1584.47 427.09,-1524.47 89.09,-1524.47"/>
<text text-anchor="start" x="100.09" y="-1544.67" font-family="Helvetica,sans-Serif" font-size="32.00" fill="#29235c">name &#160;&#160;&#160;</text>
<text text-anchor="start" x="259.67" y="-1545.67" font-family="Helvetica,sans-Serif" font-style="italic" font-size="32.00" fill="#29235c">VARCHAR</text>
<polygon fill="#e7e2dd" stroke="transparent" points="89.09,-1464.47 89.09,-1524.47 427.09,-1524.47 427.09,-1464.47 89.09,-1464.47"/>
<polygon fill="none" stroke="#29235c" points="89.09,-1464.47 89.09,-1524.47 427.09,-1524.47 427.09,-1464.47 89.09,-1464.47"/>
<text text-anchor="start" x="100.09" y="-1484.67" font-family="Helvetica,sans-Serif" font-size="32.00" fill="#29235c">address &#160;&#160;&#160;</text>
<text text-anchor="start" x="259.67" y="-1485.67" font-family="Helvetica,sans-Serif" font-style="italic" font-size="32.00" fill="#29235c">VARCHAR</text>
<polygon fill="none" stroke="#29235c" stroke-width="2" points="88.09,-1463.47 88.09,-1705.47 428.09,-1705.47 428.09,-1463.47 88.09,-1463.47"/>
</g>
<!-- WalkSchedule -->
<g id="WalkSchedule" class="node">
<title>WalkSchedule</title>
<ellipse fill="none" stroke="black" stroke-width="0" cx="258.09" cy="-1136.47" rx="257.27" ry="257.27"/>
<polygon fill="#1d71b8" stroke="transparent" points="78.09,-1256.47 78.09,-1316.47 438.09,-1316.47 438.09,-1256.47 78.09,-1256.47"/>
<polygon fill="none" stroke="#29235c" points="78.09,-1256.47 78.09,-1316.47 438.09,-1316.47 438.09,-1256.47 78.09,-1256.47"/>
<text text-anchor="start" x="93.6" y="-1277.67" font-family="Helvetica,sans-Serif" font-weight="bold" font-size="32.00" fill="#ffffff"> &#160;&#160;&#160;&#160;&#160;&#160;WalkSchedule &#160;&#160;&#160;&#160;&#160;&#160;</text>
<polygon fill="#e7e2dd" stroke="transparent" points="78.09,-1196.47 78.09,-1256.47 438.09,-1256.47 438.09,-1196.47 78.09,-1196.47"/>
<polygon fill="none" stroke="#29235c" points="78.09,-1196.47 78.09,-1256.47 438.09,-1256.47 438.09,-1196.47 78.09,-1196.47"/>
<text text-anchor="start" x="89.09" y="-1217.67" font-family="Helvetica,sans-Serif" font-weight="bold" font-size="32.00" fill="#29235c">id</text>
<text text-anchor="start" x="113.98" y="-1217.67" font-family="Helvetica,sans-Serif" font-size="32.00" fill="#29235c"> &#160;&#160;&#160;</text>
<text text-anchor="start" x="284.88" y="-1217.67" font-family="Helvetica,sans-Serif" font-style="italic" font-size="32.00" fill="#29235c">INTEGER</text>
<polygon fill="#e7e2dd" stroke="transparent" points="78.09,-1136.47 78.09,-1196.47 438.09,-1196.47 438.09,-1136.47 78.09,-1136.47"/>
<polygon fill="none" stroke="#29235c" points="78.09,-1136.47 78.09,-1196.47 438.09,-1196.47 438.09,-1136.47 78.09,-1136.47"/>
<text text-anchor="start" x="89.09" y="-1156.67" font-family="Helvetica,sans-Serif" font-size="32.00" fill="#29235c">walk_id &#160;&#160;&#160;</text>
<text text-anchor="start" x="284.88" y="-1157.67" font-family="Helvetica,sans-Serif" font-style="italic" font-size="32.00" fill="#29235c">INTEGER</text>
<polygon fill="#e7e2dd" stroke="transparent" points="78.09,-1076.47 78.09,-1136.47 438.09,-1136.47 438.09,-1076.47 78.09,-1076.47"/>
<polygon fill="none" stroke="#29235c" points="78.09,-1076.47 78.09,-1136.47 438.09,-1136.47 438.09,-1076.47 78.09,-1076.47"/>
<text text-anchor="start" x="89.09" y="-1096.67" font-family="Helvetica,sans-Serif" font-size="32.00" fill="#29235c">dog_id &#160;&#160;&#160;</text>
<text text-anchor="start" x="284.88" y="-1097.67" font-family="Helvetica,sans-Serif" font-style="italic" font-size="32.00" fill="#29235c">INTEGER</text>
<polygon fill="#e7e2dd" stroke="transparent" points="78.09,-1016.47 78.09,-1076.47 438.09,-1076.47 438.09,-1016.47 78.09,-1016.47"/>
<polygon fill="none" stroke="#29235c" points="78.09,-1016.47 78.09,-1076.47 438.09,-1076.47 438.09,-1016.47 78.09,-1016.47"/>
<text text-anchor="start" x="88.67" y="-1036.67" font-family="Helvetica,sans-Serif" font-size="32.00" fill="#29235c">start_date &#160;&#160;&#160;</text>
<text text-anchor="start" x="265.71" y="-1037.67" font-family="Helvetica,sans-Serif" font-style="italic" font-size="32.00" fill="#29235c">DATETIME</text>
<polygon fill="#e7e2dd" stroke="transparent" points="78.09,-956.47 78.09,-1016.47 438.09,-1016.47 438.09,-956.47 78.09,-956.47"/>
<polygon fill="none" stroke="#29235c" points="78.09,-956.47 78.09,-1016.47 438.09,-1016.47 438.09,-956.47 78.09,-956.47"/>
<text text-anchor="start" x="89.09" y="-976.67" font-family="Helvetica,sans-Serif" font-size="32.00" fill="#29235c">start_time &#160;&#160;&#160;</text>
<text text-anchor="start" x="265.71" y="-977.67" font-family="Helvetica,sans-Serif" font-style="italic" font-size="32.00" fill="#29235c">DATETIME</text>
<polygon fill="none" stroke="#29235c" stroke-width="2" points="77.09,-955.47 77.09,-1317.47 439.09,-1317.47 439.09,-955.47 77.09,-955.47"/>
</g>
<!-- WalkSchedule&#45;&gt;Dog -->
<!-- WalkSchedule&#45;&gt;Dog -->
<g id="edge12" class="edge">
<title>WalkSchedule:e&#45;&gt;Dog:w</title>
<path fill="none" stroke="#29235c" stroke-width="3" d="M439.09,-1106.47C577.32,-1106.47 542.56,-910.4 672.34,-900.83"/>
<polygon fill="#29235c" stroke="#29235c" stroke-width="3" points="672.53,-904.33 682.39,-900.47 672.28,-897.33 672.53,-904.33"/>
<text text-anchor="middle" x="676.17" y="-910.07" font-family="Helvetica,sans-Serif" font-size="32.00" fill="#29235c">*</text>
<text text-anchor="middle" x="430.2" y="-1116.07" font-family="Helvetica,sans-Serif" font-size="32.00" fill="#29235c">1</text>
</g>
<!-- WalkSchedule&#45;&gt;Walk -->
<!-- WalkSchedule&#45;&gt;Walk -->
<g id="edge14" class="edge">
<title>WalkSchedule:e&#45;&gt;Walk:w</title>
<path fill="none" stroke="#29235c" stroke-width="3" d="M439.09,-1166.47C583.7,-1166.47 494.72,-1421.1 628.38,-1433.04"/>
<polygon fill="#29235c" stroke="#29235c" stroke-width="3" points="628.25,-1436.53 638.39,-1433.47 628.56,-1429.54 628.25,-1436.53"/>
<text text-anchor="middle" x="632.17" y="-1404.67" font-family="Helvetica,sans-Serif" font-size="32.00" fill="#29235c">*</text>
<text text-anchor="middle" x="430.2" y="-1176.07" font-family="Helvetica,sans-Serif" font-size="32.00" fill="#29235c">1</text>
</g>
</g>
</svg>
